<svg width="73" height="40" viewBox="0 0 73 40" fill="none" xmlns="http://www.w3.org/2000/svg">
<g clip-path="url(#clip0)">
<path d="M38.5225 29.1757C32.8974 29.1757 28.3152 24.6656 28.3152 19.1291C28.3152 13.5925 32.8974 9.08243 38.5225 9.08243C44.1476 9.08243 48.7299 13.5925 48.7299 19.1291C48.7299 24.6656 44.1476 29.1757 38.5225 29.1757ZM38.5225 12.9704C35.0779 12.9704 32.2654 15.7387 32.2654 19.1291C32.2654 22.5194 35.0779 25.2877 38.5225 25.2877C41.9671 25.2877 44.7797 22.5194 44.7797 19.1291C44.7797 15.7387 41.9671 12.9704 38.5225 12.9704ZM60.9281 36.1431C57.4836 36.1431 54.671 33.3748 54.671 29.9844H50.7524C50.7524 35.521 55.3346 40.0311 60.9597 40.0311C66.5848 40.0311 71.1671 35.521 71.1671 29.9844H67.2485C67.1853 33.3748 64.3727 36.1431 60.9281 36.1431ZM73 10.4199L70.219 7.68274L66.8693 10.9798C65.1944 9.79782 63.1403 9.08243 60.9281 9.08243C55.303 9.08243 50.7208 13.5925 50.7208 19.1291C50.7208 24.6656 55.303 29.1757 60.9281 29.1757C66.5533 29.1757 71.1355 24.6656 71.1355 19.1291C71.1355 17.1695 70.5667 15.3655 69.587 13.8103L73 10.4199ZM60.9281 25.3188C57.4836 25.3188 54.671 22.5505 54.671 19.1602C54.671 15.7698 57.4836 13.0016 60.9281 13.0016C64.3727 13.0016 67.1853 15.7698 67.1853 19.1602C67.1853 22.5505 64.3727 25.3188 60.9281 25.3188ZM10.2074 9.11353C7.83723 9.11353 5.68831 9.92224 3.95022 11.2597V0H0V19.5023H0.0316017C0.221212 24.8834 4.70866 29.1757 10.2074 29.1757C15.8325 29.1757 20.4147 24.6656 20.4147 19.1291C20.4147 13.5925 15.8325 9.11353 10.2074 9.11353ZM10.2074 25.3188C6.76277 25.3188 3.95022 22.5505 3.95022 19.1602C3.95022 15.7698 6.76277 13.0016 10.2074 13.0016C13.6519 13.0016 16.4645 15.7698 16.4645 19.1602C16.4645 22.5505 13.6519 25.3188 10.2074 25.3188ZM26.3242 0H22.4056V28.1493H26.3242V0Z" fill="white"/>
<path d="M71.104 3.04796C71.104 1.43055 69.7767 0.155273 68.165 0.155273C66.5217 0.155273 65.2261 1.46165 65.2261 3.04796C65.2261 4.66538 66.5533 5.94065 68.165 5.94065C69.7767 5.94065 71.104 4.63428 71.104 3.04796Z" fill="#F04E3E"/>
<path d="M47.7502 1.74216H46.2333V5.7857H47.7502V1.74216Z" fill="white"/>
<path d="M39.8813 5.75482L39.3125 3.82636L38.5225 5.75482H35.4887V3.07986H34.5091V5.75482H32.9606V1.71127H37.0372V4.47955H37.448L38.6173 1.96011L37.8272 0.0316467H39.4705C39.4705 0.0316467 41.019 4.35513 41.493 5.75482H39.8813Z" fill="white"/>
<path d="M57.0729 1.64893C55.8405 1.64893 54.7976 2.55095 54.7976 3.76401C54.7976 4.97707 55.8405 5.8791 57.0729 5.8791C58.2738 5.8791 59.3167 4.97707 59.3167 3.76401C59.3167 2.51984 58.2738 1.64893 57.0729 1.64893ZM57.0729 4.47941C56.6305 4.47941 56.3145 4.16836 56.3145 3.73291C56.3145 3.29745 56.5989 2.98641 57.0729 2.98641C57.4838 2.98641 57.7998 3.26634 57.7998 3.73291C57.7998 4.16836 57.4838 4.47941 57.0729 4.47941Z" fill="white"/>
<path d="M43.5787 3.01751C43.9895 3.01751 44.3055 3.32855 44.3371 3.76401V3.79512C44.3371 4.23058 43.9895 4.57272 43.5787 4.57272C43.1363 4.57272 42.7886 4.23058 42.7886 3.79512C42.757 3.32855 43.1363 3.01751 43.5787 3.01751ZM43.4523 1.64893C42.2514 1.64893 41.335 2.55095 41.335 3.73291C41.335 4.94597 42.283 5.84799 43.4523 5.84799C43.7999 5.84799 44.1475 5.75468 44.4635 5.56806L44.5583 5.75468H45.7908V1.71113H44.5583L44.4635 1.89776C44.1475 1.74224 43.7999 1.64893 43.4523 1.64893Z" fill="white"/>
<path d="M50.3414 3.04853C50.7838 3.04853 51.0998 3.35958 51.0998 3.79503C51.0998 4.23049 50.7838 4.54154 50.3414 4.54154C49.8674 4.54154 49.5513 4.23049 49.5513 3.79503C49.5513 3.35958 49.899 3.04853 50.3414 3.04853ZM54.4496 1.74216H50.3414C49.0457 1.74216 48.1293 2.64418 48.1293 3.82614C48.1293 5.0392 49.1405 5.87902 50.3414 5.87902C51.5739 5.87902 52.4587 5.0392 52.4587 3.98166C52.4587 3.63951 52.3639 3.32847 52.1743 3.01743H52.9011V5.7857H54.4496V1.74216Z" fill="white"/>
</g>
<defs>
<clipPath id="clip0">
<rect width="73" height="40" fill="white"/>
</clipPath>
</defs>
</svg>
