<svg width="65" height="110" viewBox="0 0 65 110" fill="none" xmlns="http://www.w3.org/2000/svg">
<g clip-path="url(#clip0_4688_251)">
<path d="M0 0V92.6274L32.5 110L65 92.6274V0H0Z" fill="#002171"/>
<path d="M61.3218 98.2973H60.6865V99.6772H60.1055V98.2973H59.4758V97.7417H61.3226V98.2973H61.3218ZM63.9023 99.6772H63.3214V98.8796L62.8818 99.6562H62.621L62.1815 98.8796V99.6772H61.6005V97.7417H62.0945L62.7518 98.9119L63.4091 97.7417H63.9031V99.6772H63.9023Z" fill="#002171"/>
<path d="M65 0H0V64.5161H65V0Z" fill="#FF1628"/>
<path d="M16.1719 9.97084V10.8442C16.1719 12.462 15.6503 13.7725 14.6071 14.7749C13.5638 15.7781 12.211 16.2797 10.5649 16.2797C8.80418 16.2797 7.33762 15.7136 6.18062 14.5813C5.02362 13.4329 4.45325 12.0418 4.45325 10.4079C4.45325 8.77407 5.02362 7.36681 6.16437 6.21842C7.32137 5.07004 8.73918 4.50391 10.4341 4.50391C12.5693 4.50391 14.4275 5.53939 15.4049 7.141L13.4817 8.241C12.9439 7.31923 11.7706 6.67165 10.4178 6.67165C9.32581 6.67165 8.42962 7.02729 7.72843 7.73939C7.02806 8.43536 6.68518 9.32487 6.68518 10.4087C6.68518 11.4926 7.0435 12.366 7.74468 13.062C8.46212 13.7571 9.40706 14.0975 10.5803 14.0975C12.3239 14.0975 13.4972 13.2886 13.9051 11.9458H10.4503V9.97245H16.1711V9.97084H16.1719Z" fill="white"/>
<path d="M19.5397 9.35596C19.911 8.32048 20.8405 7.80273 21.8935 7.80273V10.1326C21.2899 10.0519 20.7325 10.181 20.2523 10.5213C19.7721 10.8608 19.5397 11.4108 19.5397 12.1874V16.0535H17.5426V7.96483H19.5397V9.35596Z" fill="white"/>
<path d="M25.2671 12.8665C25.5442 13.8859 26.3104 14.3875 27.5649 14.3875C28.3635 14.3875 28.9827 14.1125 29.3905 13.5786L31.0854 14.5488C30.2867 15.6972 29.0972 16.2794 27.5324 16.2794C26.1795 16.2794 25.1038 15.8746 24.2889 15.0665C23.4739 14.2576 23.066 13.2383 23.066 12.0092C23.066 10.7802 23.4739 9.77699 24.2726 8.96812C25.0713 8.14312 26.1145 7.73828 27.369 7.73828C28.5585 7.73828 29.553 8.14312 30.3192 8.96812C31.1017 9.79312 31.4925 10.7963 31.4925 12.0092C31.4925 12.2842 31.46 12.5592 31.4112 12.8665H25.2671ZM29.3905 11.2488C29.146 10.1488 28.331 9.61489 27.3699 9.61489C26.2454 9.61489 25.4792 10.2133 25.2346 11.2488H29.3905Z" fill="white"/>
<path d="M39.0722 7.96472H41.1749V16.0534H39.0722V15.0986C38.4368 15.8913 37.5569 16.2792 36.4153 16.2792C35.2738 16.2792 34.3946 15.8744 33.6122 15.0494C32.846 14.2244 32.4552 13.205 32.4552 12.0083C32.4552 10.8115 32.8468 9.80827 33.6122 8.98327C34.3946 8.15827 35.3233 7.7373 36.4153 7.7373C37.5073 7.7373 38.436 8.12521 39.0722 8.91795V7.96392V7.96472ZM36.8069 14.2897C37.4594 14.2897 37.9964 14.0792 38.4206 13.6591C38.8601 13.222 39.0722 12.672 39.0722 12.0091C39.0722 11.3462 38.8601 10.7962 38.4206 10.3752C37.9964 9.93811 37.4594 9.72843 36.8069 9.72843C36.1545 9.72843 35.6174 9.93892 35.1933 10.3752C34.7692 10.7962 34.5579 11.3462 34.5579 12.0091C34.5579 12.672 34.77 13.222 35.1933 13.6591C35.6166 14.0792 36.1545 14.2897 36.8069 14.2897Z" fill="white"/>
<path d="M48.0699 9.97084H46.228V13.3354C46.228 14.2087 46.8633 14.2249 48.0699 14.1604V16.0531C45.1847 16.3765 44.1252 15.5515 44.1252 13.3354V9.97084H42.7074V7.9652H44.1252V6.33133L46.228 5.70068V7.9652H48.0699V9.97084Z" fill="white"/>
<path d="M10.2073 18.9521C11.2993 18.9521 12.228 19.3239 12.9779 20.0521C13.7279 20.7804 14.1024 21.686 14.1024 22.7538C14.1024 23.8215 13.7279 24.7271 12.9779 25.4554C12.228 26.1836 11.2993 26.5554 10.2073 26.5554H8.20286V30.2763H5.95386V18.9521H10.2081H10.2073ZM10.2073 24.4683C11.1685 24.4683 11.8697 23.7239 11.8697 22.7538C11.8697 21.7836 11.1693 21.0392 10.2073 21.0392H8.20286V24.4683H10.2073Z" fill="white"/>
<path d="M17.7376 19.0566H15.6349V30.276H17.7376V19.0566Z" fill="white"/>
<path d="M26.1802 22.1874H28.283V30.2753H26.1802V29.3204C25.5449 30.1132 24.6649 30.5011 23.5234 30.5011C22.3818 30.5011 21.5027 30.0963 20.7202 29.2721C19.954 28.4471 19.5632 27.4277 19.5632 26.2309C19.5632 25.0342 19.954 24.0309 20.7202 23.2059C21.5027 22.3809 22.4314 21.96 23.5234 21.96C24.6154 21.96 25.544 22.3479 26.1802 23.1406V22.1866V22.1874ZM23.915 28.5124C24.5674 28.5124 25.1045 28.3019 25.5286 27.8817C25.9682 27.4446 26.1802 26.8946 26.1802 26.2317C26.1802 25.5688 25.9682 25.0188 25.5286 24.5979C25.1045 24.1608 24.5674 23.9511 23.915 23.9511C23.2625 23.9511 22.7255 24.1616 22.3014 24.5979C21.8772 25.0188 21.666 25.5688 21.666 26.2317C21.666 26.8946 21.878 27.4446 22.3014 27.8817C22.7247 28.3019 23.2634 28.5124 23.915 28.5124Z" fill="white"/>
<path d="M31.3152 29.2727C30.5003 28.4477 30.0924 27.4445 30.0924 26.2316C30.0924 25.0187 30.5003 24.0155 31.3152 23.1905C32.1464 22.3655 33.1734 21.9614 34.3954 21.9614C35.9765 21.9614 37.3781 22.7703 38.046 24.0485L36.2373 25.1001C35.9115 24.4372 35.2103 24.0163 34.3792 24.0163C33.1247 24.0163 32.1952 24.938 32.1952 26.2324C32.1952 26.863 32.4072 27.3969 32.8143 27.8179C33.2213 28.2219 33.743 28.4324 34.3792 28.4324C35.2266 28.4324 35.9278 28.0276 36.2536 27.3647L38.0793 28.4001C37.3627 29.6784 35.9765 30.5034 34.3962 30.5034C33.1742 30.5034 32.1472 30.0985 31.316 29.2735" fill="white"/>
<path d="M41.4367 27.0892C41.7137 28.1085 42.4799 28.6101 43.7344 28.6101C44.5331 28.6101 45.1522 28.3351 45.5601 27.8013L47.255 28.7714C46.4563 29.9198 45.2668 30.5021 43.7019 30.5021C42.3491 30.5021 41.2733 30.0972 40.4584 29.2892C39.6435 28.4803 39.2356 27.4609 39.2356 26.2319C39.2356 25.0029 39.6435 23.9996 40.4422 23.1908C41.2408 22.3658 42.2841 21.9609 43.5386 21.9609C44.7281 21.9609 45.7226 22.365 46.4888 23.1908C47.2712 24.0158 47.662 25.019 47.662 26.2319C47.662 26.5069 47.6295 26.7819 47.5808 27.0892H41.4367ZM45.5601 25.4714C45.3155 24.3714 44.5006 23.8375 43.5394 23.8375C42.4149 23.8375 41.6487 24.4359 41.4042 25.4714H45.5601Z" fill="white"/>
<path d="M12.8472 33.7402V35.7693H9.767V44.4983H7.518V35.7693H4.45325V33.7402H12.8472Z" fill="white"/>
<path d="M16.3506 44.7246C15.1449 44.7246 14.1179 44.3197 13.2867 43.4947C12.4555 42.6697 12.0476 41.6504 12.0476 40.4536C12.0476 39.2568 12.4555 38.2536 13.2867 37.4286C14.1179 36.6036 15.1449 36.1826 16.3506 36.1826C17.5564 36.1826 18.5834 36.6028 19.4145 37.4286C20.2457 38.2536 20.6699 39.2568 20.6699 40.4536C20.6699 41.6504 20.2465 42.6697 19.4145 43.4947C18.5834 44.3197 17.5564 44.7246 16.3506 44.7246ZM16.3506 42.6858C16.986 42.6858 17.5076 42.4754 17.9317 42.0552C18.355 41.6342 18.5671 41.1004 18.5671 40.4536C18.5671 39.8068 18.355 39.2729 17.9317 38.852C17.5076 38.4318 16.9868 38.2213 16.3506 38.2213C15.7144 38.2213 15.1936 38.4318 14.7695 38.852C14.3616 39.2729 14.1504 39.806 14.1504 40.4536C14.1504 41.1012 14.3624 41.6342 14.7695 42.0552C15.1928 42.4754 15.7144 42.6858 16.3506 42.6858Z" fill="white"/>
<path d="M7.95671 59.3828L4.76196 48.0586H7.12471L9.30871 56.4546L11.6885 48.0586H13.6117L16.0078 56.4546L18.1918 48.0586H20.5545L17.3606 59.3828H14.8012L12.6497 51.9086L10.5153 59.3828H7.95671Z" fill="white"/>
<path d="M24.6634 59.6093C23.4576 59.6093 22.4306 59.2045 21.5994 58.3795C20.7682 57.5545 20.3604 56.5351 20.3604 55.3384C20.3604 54.1416 20.7682 53.1384 21.5994 52.3134C22.4306 51.4884 23.4576 51.0674 24.6634 51.0674C25.8691 51.0674 26.8961 51.4875 27.7273 52.3134C28.5585 53.1384 28.9826 54.1416 28.9826 55.3384C28.9826 56.5351 28.5593 57.5545 27.7273 58.3795C26.8961 59.2045 25.8691 59.6093 24.6634 59.6093ZM24.6634 57.5706C25.2987 57.5706 25.8204 57.3601 26.2445 56.94C26.6678 56.519 26.8799 55.9859 26.8799 55.3384C26.8799 54.6908 26.6678 54.1577 26.2445 53.7367C25.8204 53.3166 25.2995 53.1061 24.6634 53.1061C24.0272 53.1061 23.5064 53.3166 23.0822 53.7367C22.6744 54.1577 22.4631 54.6908 22.4631 55.3384C22.4631 55.9859 22.6752 56.519 23.0822 56.94C23.5055 57.3601 24.0272 57.5706 24.6634 57.5706Z" fill="white"/>
<path d="M32.5682 52.6851C32.959 51.6496 33.9372 51.1318 35.0455 51.1318V53.4617C34.4093 53.381 33.8227 53.5101 33.3173 53.8504C32.8119 54.1899 32.5673 54.7399 32.5673 55.5165V59.3826H30.4646V51.2939H32.5673V52.6851H32.5682Z" fill="white"/>
<path d="M44.1082 59.3828H41.6633L38.6969 55.7102V59.3828H36.595V48.0586H38.6969V54.8529L41.5 51.2941H44.0098L40.7347 55.29L44.1082 59.3828Z" fill="white"/>
<path d="M44.8751 57.9247C44.8751 56.911 45.6884 56.0957 46.7179 56.0957C47.7473 56.0957 48.5606 56.903 48.5606 57.9167C48.5606 58.9304 47.7473 59.7376 46.7179 59.7376C45.6884 59.7376 44.8751 58.9546 44.8751 57.9247ZM48.2283 57.9167C48.2283 57.0183 47.597 56.3925 46.7179 56.3925C45.8387 56.3925 45.2066 57.0272 45.2066 57.9247C45.2066 58.8223 45.8704 59.4409 46.7179 59.4409C47.5653 59.4409 48.2283 58.8151 48.2283 57.9167ZM46.0866 56.9941H46.726C47.1493 56.9941 47.4231 57.1675 47.4231 57.5376V57.5457C47.4231 57.8175 47.2655 57.9659 47.0494 58.032L47.5312 58.7981H47.116L46.6756 58.0981H46.4847V58.7981H46.0866V56.9941ZM46.7179 57.8263C46.9251 57.8263 47.0331 57.736 47.0331 57.5626V57.5546C47.0331 57.3651 46.9169 57.2989 46.7179 57.2989H46.4855V57.8263H46.7179Z" fill="white"/>
<path d="M7.1062 74.7106C7.1062 72.0945 9.06026 70.0654 11.7862 70.0654C13.4323 70.0654 14.8851 70.8953 15.6561 72.1711L14.1262 73.0517C13.6891 72.2606 12.8148 71.7751 11.7862 71.7751C10.0247 71.7751 8.8677 72.9872 8.8677 74.7106C8.8677 76.434 10.0247 77.6332 11.7862 77.6332C12.8148 77.6332 13.7021 77.1485 14.1262 76.3695L15.6561 77.2501C14.8973 78.5267 13.4445 79.3558 11.7862 79.3558C9.06026 79.3558 7.1062 77.3138 7.1062 74.7106Z" fill="white"/>
<path d="M19.5651 77.8623C20.2078 77.8623 20.7221 77.5946 21.0049 77.2244L22.3422 77.9906C21.7377 78.8583 20.7733 79.3559 19.5391 79.3559C17.3787 79.3559 16.0161 77.8882 16.0161 75.9865C16.0161 74.0849 17.3917 72.6172 19.4107 72.6172C21.3136 72.6172 22.664 74.1107 22.664 75.9865C22.664 76.2293 22.638 76.4462 22.5998 76.6632H17.7524C17.984 77.5059 18.6909 77.8632 19.5651 77.8632V77.8623ZM21.0049 75.3865C20.7993 74.468 20.1046 74.0978 19.4107 74.0978C18.5235 74.0978 17.919 74.5704 17.7264 75.3865H21.0049Z" fill="white"/>
<path d="M27.1132 72.668V74.5059C26.252 74.4035 25.1592 74.7865 25.1592 76.1268V79.1768H23.5009V72.7954H25.1592V73.893C25.4931 73.0252 26.3032 72.668 27.1132 72.668Z" fill="white"/>
<path d="M30.6744 74.3783V77.0332C30.6744 77.7227 31.1757 77.7348 32.1272 77.684V79.1775C29.8002 79.4331 29.0153 78.7565 29.0153 77.0332V74.3783H27.8965V72.7961H29.0153V71.5073L30.6736 71.0098V72.7969H32.1264V74.3791H30.6736L30.6744 74.3783Z" fill="white"/>
<path d="M33.1688 71.0219C33.1688 70.4736 33.6319 70.001 34.1844 70.001C34.7369 70.001 35.2131 70.4736 35.2131 71.0219C35.2131 71.5703 34.7499 72.03 34.1844 72.03C33.6189 72.03 33.1688 71.5703 33.1688 71.0219ZM33.3614 72.7961H35.0197V79.1776H33.3614V72.7961Z" fill="white"/>
<path d="M38.6588 72.7323V72.796H40.0222V74.3783H38.6588V79.1767H37.0005V74.3783H36.0751V72.796H37.0005V72.7323C37.0005 70.971 37.9779 69.9371 40.0222 70.0654V71.6476C39.1609 71.5839 38.6588 71.8646 38.6588 72.7323Z" fill="white"/>
<path d="M40.8704 71.0219C40.8704 70.4736 41.3335 70.001 41.886 70.001C42.4385 70.001 42.9146 70.4736 42.9146 71.0219C42.9146 71.5703 42.4515 72.03 41.886 72.03C41.3205 72.03 40.8704 71.5703 40.8704 71.0219ZM41.0629 72.7961H42.7212V79.1776H41.0629V72.7961Z" fill="white"/>
<path d="M47.299 77.8623C47.9417 77.8623 48.456 77.5946 48.7387 77.2244L50.0761 77.9906C49.4716 78.8583 48.5072 79.3559 47.273 79.3559C45.1126 79.3559 43.75 77.8882 43.75 75.9865C43.75 74.0849 45.1256 72.6172 47.1446 72.6172C49.0475 72.6172 50.3979 74.1107 50.3979 75.9865C50.3979 76.2293 50.3719 76.4462 50.3337 76.6632H45.4863C45.7179 77.5059 46.4247 77.8632 47.299 77.8632V77.8623ZM48.7387 75.3865C48.5332 74.468 47.8385 74.0978 47.1446 74.0978C46.2574 74.0978 45.6529 74.5704 45.4603 75.3865H48.7387Z" fill="white"/>
<path d="M57.894 70.244V79.1778H56.2357V78.4246C55.7726 79.0117 55.0917 79.3561 54.1524 79.3561C52.4291 79.3561 51.0154 77.8883 51.0154 75.9867C51.0154 74.0851 52.4299 72.6174 54.1524 72.6174C55.0909 72.6174 55.7726 72.9617 56.2357 73.5488V70.2432H57.894V70.244ZM56.2357 75.9867C56.2357 74.9149 55.4768 74.1875 54.4612 74.1875C53.4456 74.1875 52.6737 74.9149 52.6737 75.9867C52.6737 77.0585 53.4326 77.7859 54.4612 77.7859C55.4898 77.7859 56.2357 77.0585 56.2357 75.9867Z" fill="white"/>
<path d="M7.82506 85.7168H8.64406V88.2749C8.64406 88.6095 8.61481 88.8668 8.5555 89.0466C8.47587 89.2821 8.33125 89.4708 8.12243 89.6128C7.91281 89.7555 7.63737 89.8265 7.2945 89.8265C6.89312 89.8265 6.58356 89.7152 6.36662 89.4918C6.14968 89.2684 6.04081 88.941 6.03918 88.5095L6.81431 88.4216C6.82325 88.6531 6.85818 88.8168 6.91668 88.912C7.00525 89.0571 7.14093 89.1297 7.32212 89.1297C7.50331 89.1297 7.63493 89.0781 7.71131 88.9741C7.78687 88.87 7.82506 88.6547 7.82506 88.3281V85.7176V85.7168Z" fill="white"/>
<path d="M9.51351 85.7168H10.3358V87.9055C10.3358 88.2531 10.3455 88.4781 10.3666 88.5805C10.4016 88.7458 10.4853 88.8789 10.6177 88.9789C10.7501 89.0789 10.9313 89.1289 11.1604 89.1289C11.3896 89.1289 11.5699 89.0813 11.6878 88.987C11.8064 88.8926 11.8779 88.7757 11.9014 88.6386C11.9258 88.5007 11.9372 88.2716 11.9372 87.9523V85.7168H12.7594V87.8394C12.7594 88.3249 12.7375 88.6676 12.6928 88.8676C12.6481 89.0676 12.5661 89.237 12.4474 89.3749C12.3288 89.5128 12.1679 89.6224 11.9681 89.7039C11.7682 89.7853 11.5074 89.8265 11.1848 89.8265C10.7956 89.8265 10.5015 89.7821 10.3 89.6926C10.0993 89.6031 9.94007 89.4878 9.82388 89.345C9.7077 89.2023 9.63051 89.0531 9.59313 88.8974C9.53951 88.666 9.5127 88.3241 9.5127 87.8724V85.7168H9.51351Z" fill="white"/>
<path d="M13.6354 89.7579V85.7168H14.4349L16.1013 88.4152V85.7168H16.8651V89.7579H16.0404L14.3991 87.1224V89.7579H13.6354Z" fill="white"/>
<path d="M21.7774 89.0386V89.7579H19.0417C19.071 89.4862 19.1604 89.2281 19.3082 88.9846C19.4561 88.741 19.7486 88.4184 20.1857 88.016C20.5376 87.691 20.7529 87.47 20.8325 87.3547C20.9397 87.195 20.9934 87.037 20.9934 86.8805C20.9934 86.7079 20.9462 86.5749 20.8528 86.4821C20.7594 86.3894 20.6302 86.3426 20.4652 86.3426C20.3003 86.3426 20.1727 86.391 20.0761 86.4886C19.9794 86.5862 19.9241 86.7475 19.9095 86.9741L19.1319 86.8967C19.1782 86.47 19.3237 86.1644 19.5682 85.9789C19.8128 85.7934 20.1183 85.7007 20.4847 85.7007C20.8861 85.7007 21.2022 85.8079 21.4321 86.0233C21.6621 86.2386 21.7766 86.5055 21.7766 86.8257C21.7766 87.0079 21.7441 87.1805 21.6783 87.345C21.6125 87.5096 21.5085 87.6821 21.3655 87.862C21.2712 87.9813 21.1006 88.1531 20.8544 88.3773C20.6082 88.6015 20.4522 88.7507 20.3864 88.8241C20.3206 88.8975 20.2678 88.9692 20.2264 89.0394H21.7758L21.7774 89.0386Z" fill="white"/>
<path d="M23.6242 85.7007C24.0182 85.7007 24.327 85.8402 24.5488 86.12C24.8137 86.4507 24.9461 86.9991 24.9461 87.766C24.9461 88.5329 24.8129 89.0797 24.5464 89.4144C24.3262 89.6902 24.0191 89.8281 23.6242 89.8281C23.2293 89.8281 22.9084 89.6773 22.6662 89.3749C22.4233 89.0725 22.3022 88.5337 22.3022 87.7579C22.3022 86.9821 22.4355 86.4499 22.702 86.1152C22.9222 85.8394 23.2293 85.7015 23.6242 85.7015V85.7007ZM23.6242 86.3426C23.5299 86.3426 23.4454 86.3725 23.3715 86.4321C23.2976 86.4918 23.2399 86.5991 23.1992 86.7531C23.1456 86.9531 23.1188 87.291 23.1188 87.7644C23.1188 88.2378 23.1432 88.5644 23.1911 88.7418C23.2391 88.9192 23.3 89.037 23.3731 89.0959C23.4462 89.1547 23.5299 89.1838 23.6242 89.1838C23.7184 89.1838 23.8029 89.1539 23.8769 89.0942C23.9508 89.0346 24.0085 88.9273 24.0491 88.7733C24.1027 88.5749 24.1296 88.2386 24.1296 87.7644C24.1296 87.2902 24.1052 86.9644 24.0572 86.787C24.0093 86.6096 23.9484 86.491 23.8752 86.4313C23.8021 86.3717 23.7184 86.3418 23.6242 86.3418V86.3426Z" fill="white"/>
<path d="M28.1035 89.0386V89.7579H25.3678C25.397 89.4862 25.4864 89.2281 25.6343 88.9846C25.7822 88.741 26.0747 88.4184 26.5118 88.016C26.8636 87.691 27.0789 87.47 27.1585 87.3547C27.2658 87.195 27.3194 87.037 27.3194 86.8805C27.3194 86.7079 27.2723 86.5749 27.1789 86.4821C27.0854 86.3894 26.9562 86.3426 26.7913 86.3426C26.6264 86.3426 26.4988 86.391 26.4021 86.4886C26.3054 86.5862 26.2502 86.7475 26.2355 86.9741L25.458 86.8967C25.5043 86.47 25.6497 86.1644 25.8943 85.9789C26.1389 85.7934 26.4444 85.7007 26.8108 85.7007C27.2122 85.7007 27.5282 85.8079 27.7582 86.0233C27.9881 86.2386 28.1027 86.5055 28.1027 86.8257C28.1027 87.0079 28.0702 87.1805 28.0044 87.345C27.9385 87.5096 27.8345 87.6821 27.6915 87.862C27.5973 87.9813 27.4267 88.1531 27.1805 88.3773C26.9343 88.6015 26.7783 88.7507 26.7125 88.8241C26.6467 88.8975 26.5939 88.9692 26.5524 89.0394H28.1019L28.1035 89.0386Z" fill="white"/>
<path d="M28.604 88.6855L29.3596 88.5944C29.384 88.7855 29.4482 88.9315 29.5538 89.0323C29.6594 89.1331 29.787 89.1839 29.9373 89.1839C30.0982 89.1839 30.2339 89.1234 30.3444 89.0017C30.4549 88.8807 30.5093 88.717 30.5093 88.5113C30.5093 88.3162 30.4565 88.1622 30.3509 88.0484C30.2453 87.9347 30.1169 87.8775 29.9649 87.8775C29.865 87.8775 29.7456 87.8968 29.6066 87.9355L29.6928 87.3041C29.904 87.3097 30.0649 87.2638 30.1762 87.1678C30.2875 87.071 30.3428 86.9428 30.3428 86.7831C30.3428 86.6468 30.3021 86.5388 30.2209 86.4581C30.1396 86.3775 30.0308 86.3371 29.8959 86.3371C29.761 86.3371 29.6489 86.3831 29.5546 86.4751C29.4604 86.567 29.4027 86.7009 29.3824 86.8775L28.6633 86.7565C28.7137 86.5122 28.7884 86.317 28.89 86.171C28.9908 86.0251 29.1313 85.9097 29.3125 85.8267C29.4929 85.7428 29.6952 85.7017 29.9194 85.7017C30.3029 85.7017 30.6101 85.8226 30.8416 86.0654C31.0326 86.2638 31.1276 86.488 31.1276 86.738C31.1276 87.0928 30.9326 87.3759 30.5418 87.5871C30.775 87.6371 30.9619 87.7476 31.1016 87.921C31.2414 88.0936 31.3113 88.3025 31.3113 88.5468C31.3113 88.9017 31.1804 89.2041 30.9196 89.4541C30.6588 89.7041 30.3338 89.8291 29.9446 89.8291C29.5766 89.8291 29.2711 89.7242 29.0281 89.5138C28.7852 89.3033 28.6446 89.0283 28.6056 88.688L28.604 88.6855Z" fill="white"/>
<path d="M31.8727 88.6804V87.9062H33.4059V88.6804H31.8727Z" fill="white"/>
<path d="M35.3298 85.7168H36.1488V88.2749C36.1488 88.6095 36.1188 88.8668 36.0603 89.0466C35.9806 89.2821 35.836 89.4708 35.6272 89.6128C35.4176 89.7555 35.1421 89.8265 34.7993 89.8265C34.3971 89.8265 34.0883 89.7152 33.8714 89.4918C33.6544 89.2684 33.5456 88.941 33.5439 88.5095L34.3191 88.4216C34.328 88.6531 34.3629 88.8168 34.4214 88.912C34.51 89.0571 34.6457 89.1297 34.8269 89.1297C35.0081 89.1297 35.1397 89.0781 35.2161 88.9741C35.2916 88.87 35.3298 88.6547 35.3298 88.3281V85.7176V85.7168Z" fill="white"/>
<path d="M37.0182 85.7168H37.8405V87.9055C37.8405 88.2531 37.8502 88.4781 37.8714 88.5805C37.9063 88.7458 37.99 88.8789 38.1224 88.9789C38.2549 89.0789 38.436 89.1289 38.6652 89.1289C38.8943 89.1289 39.0747 89.0813 39.1925 88.987C39.3111 88.8926 39.3826 88.7757 39.4062 88.6386C39.4297 88.5015 39.4419 88.2716 39.4419 87.9523V85.7168H40.2642V87.8394C40.2642 88.3249 40.2422 88.6676 40.1975 88.8676C40.1529 89.0676 40.0716 89.237 39.9514 89.3749C39.8319 89.5128 39.6727 89.6224 39.472 89.7039C39.2721 89.7853 39.0113 89.8265 38.6887 89.8265C38.2995 89.8265 38.0054 89.7821 37.8039 89.6926C37.6032 89.6031 37.444 89.4878 37.3278 89.345C37.2116 89.2023 37.1344 89.0531 37.097 88.8974C37.0434 88.666 37.0166 88.3241 37.0166 87.8724V85.7168H37.0182Z" fill="white"/>
<path d="M41.1393 89.7579V85.7168H41.9388L43.6052 88.4152V85.7168H44.369V89.7579H43.5443L41.903 87.1224V89.7579H41.1393Z" fill="white"/>
<path d="M49.2821 89.0386V89.7579H46.5464C46.5756 89.4862 46.665 89.2281 46.8129 88.9846C46.9608 88.741 47.2533 88.4184 47.6904 88.016C48.0422 87.691 48.2575 87.47 48.3371 87.3547C48.4444 87.195 48.498 87.037 48.498 86.8805C48.498 86.7079 48.4509 86.5749 48.3574 86.4821C48.264 86.3894 48.1348 86.3426 47.9699 86.3426C47.805 86.3426 47.6774 86.391 47.5807 86.4886C47.4848 86.5862 47.4288 86.7475 47.4141 86.9741L46.6366 86.8967C46.6829 86.47 46.8283 86.1644 47.0729 85.9789C47.3174 85.7934 47.6229 85.7007 47.9894 85.7007C48.3908 85.7007 48.7068 85.8079 48.9368 86.0233C49.1667 86.2386 49.2813 86.5055 49.2813 86.8257C49.2813 87.0079 49.248 87.1805 49.183 87.345C49.118 87.5096 49.0131 87.6821 48.8709 87.862C48.7767 87.9813 48.6061 88.1531 48.3599 88.3773C48.1137 88.6015 47.9577 88.7507 47.8919 88.8241C47.8261 88.8975 47.7733 88.9692 47.7318 89.0394H49.2813L49.2821 89.0386Z" fill="white"/>
<path d="M51.1289 85.7007C51.523 85.7007 51.8318 85.8402 52.0536 86.12C52.3184 86.4507 52.4509 86.9991 52.4509 87.766C52.4509 88.5329 52.3176 89.0797 52.0511 89.4144C51.8309 89.6902 51.5238 89.8281 51.1289 89.8281C50.7341 89.8281 50.4131 89.6773 50.171 89.3749C49.9289 89.0725 49.807 88.5337 49.807 87.7579C49.807 86.9821 49.9403 86.4499 50.2068 86.1152C50.4269 85.8394 50.7341 85.7015 51.1289 85.7015V85.7007ZM51.1289 86.3426C51.0347 86.3426 50.9502 86.3725 50.8763 86.4321C50.8023 86.4918 50.7446 86.5991 50.704 86.7531C50.6504 86.9531 50.6236 87.291 50.6236 87.7644C50.6236 88.2378 50.6479 88.5644 50.6959 88.7418C50.7438 88.9192 50.8048 89.037 50.8779 89.0959C50.951 89.1547 51.0347 89.1838 51.1289 89.1838C51.2232 89.1838 51.3077 89.1539 51.3816 89.0942C51.4556 89.0346 51.5133 88.9273 51.5539 88.7733C51.6075 88.5749 51.6343 88.2386 51.6343 87.7644C51.6343 87.2902 51.6099 86.9644 51.562 86.787C51.5141 86.6096 51.4531 86.491 51.38 86.4313C51.3069 86.3717 51.2232 86.3418 51.1289 86.3418V86.3426Z" fill="white"/>
<path d="M55.6082 89.0386V89.7579H52.8726C52.9018 89.4862 52.9912 89.2281 53.1391 88.9846C53.2869 88.741 53.5794 88.4184 54.0166 88.016C54.3684 87.691 54.5837 87.47 54.6633 87.3547C54.7706 87.195 54.8242 87.037 54.8242 86.8805C54.8242 86.7079 54.7771 86.5749 54.6836 86.4821C54.5902 86.3894 54.461 86.3426 54.2961 86.3426C54.1311 86.3426 54.0036 86.391 53.9069 86.4886C53.811 86.5862 53.7549 86.7475 53.7403 86.9741L52.9627 86.8967C53.0091 86.47 53.1545 86.1644 53.3991 85.9789C53.6436 85.7934 53.9491 85.7007 54.3156 85.7007C54.7169 85.7007 55.033 85.8079 55.2629 86.0233C55.4929 86.2386 55.6074 86.5055 55.6074 86.8257C55.6074 87.0079 55.5741 87.1805 55.5091 87.345C55.4433 87.5096 55.3393 87.6821 55.1963 87.862C55.1021 87.9813 54.9314 88.1531 54.6852 88.3773C54.4391 88.6015 54.2831 88.7507 54.2172 88.8241C54.1514 88.8975 54.0986 88.9692 54.0572 89.0394H55.6066L55.6082 89.0386Z" fill="white"/>
<path d="M57.6663 89.7579V88.945H55.9999V88.2668L57.7663 85.7007H58.4219V88.2644H58.9273V88.945H58.4219V89.7579H57.6663ZM57.6663 88.2636V86.8829L56.7303 88.2636H57.6663Z" fill="white"/>
<path d="M22.7979 98.111V97.4304H24.5699V99.04C24.3977 99.2054 24.1483 99.3513 23.8216 99.4771C23.495 99.6029 23.1635 99.6658 22.8288 99.6658C22.403 99.6658 22.0317 99.5771 21.7148 99.3997C21.3979 99.2223 21.1607 98.9691 21.0014 98.6392C20.8422 98.3094 20.7626 97.9505 20.7626 97.5626C20.7626 97.1417 20.8511 96.7683 21.0291 96.4408C21.207 96.1134 21.467 95.8626 21.8091 95.6884C22.0699 95.5546 22.3949 95.4868 22.7841 95.4868C23.2895 95.4868 23.6843 95.5916 23.9687 95.8021C24.2531 96.0126 24.4359 96.3038 24.5171 96.6747L23.7006 96.8263C23.6429 96.6279 23.5356 96.4715 23.3772 96.3562C23.2188 96.2408 23.0213 96.1836 22.7841 96.1836C22.4249 96.1836 22.1389 96.2965 21.9277 96.5223C21.7156 96.7481 21.61 97.0836 21.61 97.5287C21.61 98.0086 21.7173 98.3683 21.9318 98.6078C22.1463 98.8473 22.4282 98.9675 22.7759 98.9675C22.9482 98.9675 23.1204 98.9336 23.2935 98.8666C23.4666 98.7997 23.6153 98.7183 23.7396 98.6231V98.1102H22.7979V98.111Z" fill="white"/>
<path d="M25.3313 99.5963V95.5552H27.0611C27.4958 95.5552 27.8127 95.5915 28.0093 95.664C28.2067 95.7366 28.3644 95.8657 28.483 96.0511C28.6016 96.2366 28.6609 96.4487 28.6609 96.6882C28.6609 96.9915 28.5707 97.2423 28.3912 97.439C28.2116 97.6366 27.9435 97.7608 27.586 97.8124C27.7639 97.9157 27.9102 98.0286 28.0264 98.1511C28.1417 98.2745 28.2977 98.4931 28.4944 98.8068L28.9916 99.5955H28.0085L27.4146 98.7165C27.2033 98.4019 27.0587 98.2044 26.9815 98.1221C26.9035 98.0407 26.8214 97.9842 26.7345 97.9544C26.6476 97.9237 26.5094 97.9092 26.3209 97.9092H26.1544V99.5963H25.3321H25.3313ZM26.1536 97.264H26.7621C27.1562 97.264 27.4024 97.2471 27.5007 97.214C27.599 97.181 27.6754 97.1237 27.7314 97.0431C27.7867 96.9624 27.8151 96.8608 27.8151 96.7398C27.8151 96.6036 27.7785 96.4939 27.7054 96.4108C27.6323 96.3269 27.5291 96.2745 27.3959 96.252C27.3292 96.2431 27.1294 96.2382 26.7962 96.2382H26.1544V97.2632L26.1536 97.264Z" fill="white"/>
<path d="M29.4351 99.5963V95.5552H32.4536V96.239H30.2566V97.135H32.3008V97.8157H30.2566V98.9157H32.5308V99.5963H29.4343H29.4351Z" fill="white"/>
<path d="M33.2287 99.5963V95.5552H36.2472V96.239H34.0502V97.135H36.0944V97.8157H34.0502V98.9157H36.3243V99.5963H33.2279H33.2287Z" fill="white"/>
<path d="M39.6272 98.1107L40.4242 98.3615C40.3024 98.8026 40.0992 99.13 39.8149 99.3446C39.5305 99.5591 39.1697 99.6655 38.7334 99.6655C38.1931 99.6655 37.7487 99.4825 37.4001 99.1155C37.0516 98.7494 36.8777 98.2478 36.8777 97.6123C36.8777 96.9397 37.0524 96.4171 37.4026 96.0454C37.7527 95.6736 38.2126 95.4873 38.783 95.4873C39.2811 95.4873 39.6857 95.6333 39.9969 95.9252C40.1821 96.0978 40.3211 96.3462 40.4137 96.6696L39.6004 96.8623C39.5524 96.6526 39.4517 96.4873 39.2989 96.3663C39.1462 96.2454 38.9609 96.1841 38.7424 96.1841C38.4409 96.1841 38.1956 96.2913 38.0079 96.5067C37.8202 96.722 37.7259 97.0696 37.7259 97.551C37.7259 98.0615 37.8186 98.426 38.0038 98.643C38.1891 98.8599 38.4296 98.9679 38.7261 98.9679C38.9447 98.9679 39.1324 98.8994 39.29 98.7615C39.4476 98.6236 39.5606 98.4067 39.6288 98.1107H39.6272Z" fill="white"/>
<path d="M41.1295 99.5963V95.5552H44.1479V96.239H41.9509V97.135H43.9952V97.8157H41.9509V98.9157H44.2251V99.5963H41.1287H41.1295Z" fill="white"/>
</g>
<defs>
<clipPath id="clip0_4688_251">
<rect width="65" height="110" fill="white"/>
</clipPath>
</defs>
</svg>
