<svg width="183" height="26" viewBox="0 0 183 26" fill="none" xmlns="http://www.w3.org/2000/svg">
<g clip-path="url(#clip0)">
<path d="M21.4 10.9998C21.4 5.0998 16.6 0.299805 10.7 0.299805C4.8 0.299805 0 5.0998 0 10.9998C0 16.8998 4.8 21.6998 10.7 21.6998C16.6 21.7998 21.4 16.9998 21.4 10.9998Z" fill="#F04E3E"/>
<path d="M86.9999 6.2002H81.3999V21.1002H86.9999V6.2002Z" fill="white"/>
<path d="M58.2 21.1L56.1 14L53.2 21.1H42.2V11.2H38.6V21.1H33V6.2H47.8V16.5H49.3L53.5 7.2L50.7 0H56.7C56.7 0 62.4 16 64.1 21.1H58.2Z" fill="white"/>
<path d="M120.9 5.90039C116.4 5.90039 112.6 9.20039 112.6 13.7004C112.6 18.2004 116.4 21.5004 120.9 21.5004C125.3 21.5004 129.1 18.2004 129.1 13.7004C129.1 9.20039 125.2 5.90039 120.9 5.90039ZM120.9 16.4004C119.2 16.4004 118.2 15.2004 118.2 13.7004C118.2 12.0004 119.3 11.0004 120.9 11.0004C122.4 11.0004 123.5 12.1004 123.5 13.7004C123.5 15.2004 122.4 16.4004 120.9 16.4004Z" fill="white"/>
<path d="M71.7 10.9004C73.2 10.9004 74.4 12.1004 74.5 13.7004V13.8004C74.5 15.4004 73.2 16.7004 71.7 16.7004C70.1 16.7004 68.8 15.4004 68.8 13.8004C68.8 12.1004 70 10.9004 71.7 10.9004ZM71.2 5.90039C66.9 5.90039 63.5 9.20039 63.5 13.6004C63.5 18.1004 66.9 21.5004 71.2 21.5004C72.5 21.5004 73.8 21.1004 74.8 20.4004L75.2 21.1004H79.7V6.20039H75.2L74.8 6.90039C73.8 6.20039 72.5 5.90039 71.2 5.90039Z" fill="white"/>
<path d="M96.4 11.0002C98 11.0002 99.1999 12.2002 99.1999 13.8002C99.1999 15.4002 98 16.6002 96.4 16.6002C94.6 16.6002 93.5 15.4002 93.5 13.8002C93.4 12.2002 94.7 11.0002 96.4 11.0002ZM111.3 6.2002H96.2999C91.5999 6.2002 88.2 9.5002 88.2 13.9002C88.2 18.4002 91.7999 21.5002 96.2999 21.5002C100.8 21.5002 104 18.4002 104 14.5002C104 13.2002 103.6 12.0002 102.9 11.0002H105.5V21.2002H111.1V6.2002H111.3Z" fill="white"/>
</g>
<path d="M146.582 10.066C146.582 10.9753 146.267 11.6573 145.636 12.112C145.005 12.552 144.155 12.772 143.084 12.772H140.158V7.404H143.062C144.118 7.404 144.969 7.60933 145.614 8.02C146.259 8.43067 146.582 9.11267 146.582 10.066ZM148.738 10.066C148.738 8.64333 148.239 7.54333 147.242 6.766C146.245 5.98867 144.881 5.6 143.15 5.6H138.112V21H140.158V14.554H143.172C144.815 14.554 146.149 14.1727 147.176 13.41C148.217 12.6473 148.738 11.5327 148.738 10.066ZM160.246 10.066C160.246 11.87 159.08 12.772 156.748 12.772H153.822V7.404H156.726C157.782 7.404 158.633 7.60933 159.278 8.02C159.923 8.43067 160.246 9.11267 160.246 10.066ZM158.706 14.312C159.806 14.0773 160.693 13.608 161.368 12.904C162.057 12.2 162.402 11.254 162.402 10.066C162.402 8.64333 161.903 7.54333 160.906 6.766C159.909 5.98867 158.545 5.6 156.814 5.6H151.776V21H153.822V14.554H156.638L160.576 21H162.886L158.706 14.312ZM172.976 21.22C174.164 21.22 175.249 21.0147 176.232 20.604C177.214 20.1787 178.058 19.6067 178.762 18.888C179.466 18.1547 180.008 17.3113 180.39 16.358C180.771 15.39 180.962 14.3707 180.962 13.3C180.962 12.2147 180.756 11.1953 180.346 10.242C179.95 9.274 179.4 8.43067 178.696 7.712C177.992 6.99333 177.156 6.42867 176.188 6.018C175.22 5.59267 174.164 5.38 173.02 5.38C171.832 5.38 170.746 5.59267 169.764 6.018C168.781 6.42867 167.938 7.00067 167.234 7.734C166.53 8.45267 165.987 9.28867 165.606 10.242C165.224 11.1953 165.034 12.2147 165.034 13.3C165.034 14.3853 165.224 15.412 165.606 16.38C166.002 17.3333 166.552 18.1693 167.256 18.888C167.96 19.6067 168.796 20.1787 169.764 20.604C170.746 21.0147 171.817 21.22 172.976 21.22ZM173.02 19.328C172.169 19.328 171.384 19.174 170.666 18.866C169.962 18.5433 169.353 18.1107 168.84 17.568C168.326 17.0107 167.923 16.3727 167.63 15.654C167.336 14.9207 167.19 14.136 167.19 13.3C167.19 11.5987 167.725 10.1687 168.796 9.01C169.881 7.85133 171.274 7.272 172.976 7.272C173.826 7.272 174.604 7.43333 175.308 7.756C176.026 8.064 176.642 8.48933 177.156 9.032C177.684 9.57467 178.087 10.2127 178.366 10.946C178.659 11.6793 178.806 12.464 178.806 13.3C178.806 15.0013 178.263 16.4313 177.178 17.59C176.107 18.7487 174.721 19.328 173.02 19.328Z" fill="white"/>
<defs>
<clipPath id="clip0">
<rect width="139" height="21.8" fill="white"/>
</clipPath>
</defs>
</svg>
