<svg width="101" height="40" viewBox="0 0 101 40" fill="none" xmlns="http://www.w3.org/2000/svg">
<path d="M99.4983 6.4054C98.7444 3.31146 96.2942 1.06132 93.2785 0.78005C86.1164 0.0300028 78.86 -0.0637541 71.6979 0.0300018C64.4415 0.0300018 57.2794 0.0300028 50.1172 0.78005C47.1016 1.15507 44.5571 3.40521 43.8975 6.4054C42.7666 10.8119 42.7666 15.4997 42.7666 20C42.7666 24.5003 42.7666 29.1881 43.8032 33.5946C44.5571 36.6885 47.0073 38.9387 50.023 39.2199C57.1851 39.97 64.4415 40.0638 71.6036 39.97C78.86 39.97 86.0222 39.97 93.1843 39.2199C96.1999 38.8449 98.7444 36.5948 99.404 33.5946C100.441 29.2818 100.441 24.5003 100.441 20C100.441 15.4997 100.441 10.8119 99.4983 6.4054ZM59.2584 9.78061H55.0176V31.907H51.1538V9.78061H47.1016V6.12413H59.2584V9.78061ZM69.7189 31.907H66.232V29.8444C64.8184 31.4382 63.4991 32.1883 62.274 32.1883C61.1431 32.1883 60.3892 31.7195 60.0123 30.7819C59.8238 30.1256 59.7296 29.1881 59.7296 27.8755V12.687H63.2164V26.7504C63.2164 27.5942 63.2164 27.9692 63.2164 28.063C63.3106 28.6255 63.5933 28.9068 64.0645 28.9068C64.7242 28.9068 65.4781 28.3443 66.232 27.313V12.687H69.7189V31.907ZM83.0065 26.0941C83.0065 27.8755 82.9123 29.1881 82.6296 29.9381C82.1584 31.3445 81.216 32.0945 79.8024 32.0945C78.5773 32.0945 77.3522 31.4382 76.2213 29.9381V31.8132H72.7345V6.21789H76.2213V14.6559C77.3522 13.2496 78.5773 12.5933 79.8024 12.5933C81.216 12.5933 82.1584 13.3433 82.6296 14.7497C82.9123 15.4997 83.0065 16.8123 83.0065 18.5937V26.0941ZM96.1999 22.9064H89.2263V26.3754C89.2263 28.1568 89.7917 29.0006 91.0168 29.0006C91.8649 29.0006 92.3361 28.5318 92.6189 27.5942C92.6189 27.4067 92.7131 26.6567 92.7131 25.2503H96.2942V25.7191C96.2942 26.8442 96.2942 27.5942 96.1999 27.9692C96.1057 28.7193 95.823 29.4693 95.3518 30.0319C94.4094 31.4382 92.9958 32.0945 91.111 32.0945C89.3205 32.0945 87.9069 31.4382 86.8703 30.1256C86.1164 29.1881 85.7394 27.688 85.7394 25.6254V18.8749C85.7394 16.8123 86.1164 15.3122 86.7761 14.3746C87.8127 13.0621 89.132 12.4058 90.9226 12.4058C92.7131 12.4058 94.0324 13.0621 95.0691 14.3746C95.823 15.3122 96.1057 16.8123 96.1057 18.8749L96.1999 22.9064Z" fill="white"/>
<path d="M90.9229 15.5938C89.792 15.5938 89.1323 16.4376 89.1323 18.2189V20.0003H92.7134V18.2189C92.7134 16.5313 92.148 15.5938 90.9229 15.5938Z" fill="white"/>
<path d="M78.0122 15.5938C77.4468 15.5938 76.8813 15.875 76.3159 16.4376V28.0633C76.8813 28.6258 77.4468 28.9071 78.0122 28.9071C79.0488 28.9071 79.52 28.0633 79.52 26.2819V18.1252C79.52 16.5313 79.0488 15.5938 78.0122 15.5938Z" fill="white"/>
<path d="M29.4966 32.0784C30.8159 32.0784 32.1353 31.3283 33.5489 29.7345V31.8909H37.0357V12.4834H33.5489V27.2968C32.7949 28.4219 32.041 28.9844 31.2871 28.9844C30.8159 28.9844 30.5332 28.7032 30.439 28.1406C30.439 28.0469 30.439 27.5781 30.439 26.7343V12.4834H26.9521V27.7656C26.9521 29.1719 27.0464 30.0157 27.2349 30.672C27.5176 31.6096 28.3657 32.0784 29.4966 32.0784Z" fill="white"/>
<path d="M4.90041 21.2964V31.797H8.7642V21.2964L13.4761 5.82666H9.51811L6.87942 16.0461L4.1465 5.82666H0C0.848148 8.26431 1.6963 10.6082 2.54444 13.0459C3.76955 16.7023 4.6177 19.4213 4.90041 21.2964Z" fill="white"/>
<path d="M18.7534 32.0784C20.544 32.0784 21.8633 31.4221 22.8999 30.1095C23.6539 29.172 24.0308 27.5781 24.0308 25.5155V18.7651C24.0308 16.7024 23.6539 15.2023 22.8999 14.171C21.9576 12.8584 20.544 12.2021 18.7534 12.2021C16.9629 12.2021 15.6436 12.8584 14.6069 14.171C13.853 15.1086 13.4761 16.7024 13.4761 18.7651V25.5155C13.4761 27.5781 13.853 29.0782 14.6069 30.1095C15.6436 31.4221 17.0571 32.0784 18.7534 32.0784ZM17.0571 18.015C17.0571 16.2336 17.6226 15.2961 18.7534 15.2961C19.8843 15.2961 20.4497 16.2336 20.4497 18.015V26.1718C20.4497 27.9531 19.8843 28.8907 18.7534 28.8907C17.6226 28.8907 17.0571 27.9531 17.0571 26.1718V18.015Z" fill="white"/>
</svg>
